<?xml version="1.0" encoding="utf-8"?>
<!-- Generator: Adobe Illustrator 18.1.1, SVG Export Plug-In . SVG Version: 6.00 Build 0)  -->
<svg version="1.1" id="Layer_1" xmlns="http://www.w3.org/2000/svg" xmlns:xlink="http://www.w3.org/1999/xlink" x="0px" y="0px"
	 width="966.7px" height="537px" viewBox="95.7 28.8 966.7 537" enable-background="new 95.7 28.8 966.7 537" xml:space="preserve">
<g id="Layer_1_1_">
	<g>
		<path fill="#0F4BA4" d="M95.7,110.4c0-45.1,35.2-81.6,78.6-81.6h809.6c43.4,0,78.6,36.5,78.6,81.6v373.8
			c0,45.1-35.2,81.6-78.5,81.6l-809.6,0c-43.4,0-78.5-36.5-78.5-81.6V110.4z"/>
		<g>
			<path fill="#FFFFFF" d="M868.8,137.4c12,0.1,6.8-0.1,15.5,0.2c10.1,0.4,20.6,1.6,31.4,3.6c10.9,2,21.5,5,32,8.8
				c10.5,3.9,20.4,8.9,30,15c9.5,6.1,18,13.6,25.4,22.2l-62.2,40c-7.4-8.4-16.7-14.9-27.8-19.7c-11.1-4.8-24-7.4-38.8-8
				c-14.8-0.6-28.6,1.3-41.4,5.7c-12.8,4.4-24,10.8-33.6,19.3c-9.6,8.4-17.2,18.6-22.9,30.5c-5.7,11.9-8.8,24.9-9.4,39
				c-0.6,14.4,1.5,27.7,6.3,39.9c4.7,12.2,11.5,22.8,20.2,32c8.7,9.1,19.1,16.4,31.2,21.8c12.1,5.4,25.2,8.3,39.3,8.9
				c16.1,0.6,30.5-1.7,43.2-7c12.7-5.3,23.2-13,31.7-23l63.9,44.5c-15.8,17.6-35.5,30.2-59,38c-23.5,7.7-47.6,11.1-72.1,10.2
				c-27.9-1.1-53.5-5.8-76.7-14.3c-7.1-2.5-14-5.6-20.8-8.8c5.7-4.5,10.7-9.7,15.7-14.9l11.5-12.7l-14.1-9.8l-63.9-44.5l-11.3-7.9
				l-8.9,10.5c-1.4,1.6-2.8,3.2-4.4,4.7l-1.6-3.6c-8.8-20.3-12.7-42.7-11.8-67.2c0.7-20.6,5.3-40.8,13.8-59.5
				c4.7,4.2,2.7,2.2,6.2,5.9l8.6,9.7l10.9-7l62.2-40l14.6-9.4l-11.2-13.2c-5.8-6.7-12.1-12.9-19.1-18.2c11.3-5.8,23.3-9.9,35.5-13.4
				c17-4.7,34.5-7.3,52-8.1C862,137.5,865.4,137.5,868.8,137.4z"/>
			<path fill="#FFFFFF" d="M644.6,135.1c12,0.1,6.8-0.1,15.5,0.2c10.1,0.4,20.6,1.6,31.4,3.6s21.5,5,32,8.8c10.5,3.9,20.4,8.9,30,15
				c9.5,6.1,18,13.6,25.4,22.2l-62.2,40c-7.4-8.4-16.7-14.9-27.8-19.7c-11.1-4.8-24-7.4-38.8-8c-14.8-0.6-28.6,1.3-41.4,5.7
				c-12.8,4.4-24,10.8-33.6,19.3c-9.6,8.4-17.2,18.6-22.9,30.5c-5.7,11.9-8.8,24.9-9.4,39c-0.6,14.4,1.5,27.7,6.3,39.9
				c4.7,12.2,11.5,22.8,20.2,32c8.7,9.1,19.1,16.4,31.2,21.8c12.1,5.4,25.2,8.3,39.3,8.9c16.1,0.6,30.5-1.7,43.2-7
				c12.7-5.3,23.2-12.9,31.7-23l63.9,44.5c-15.8,17.6-35.5,30.2-59.1,38C696,454.6,672,458,647.4,457c-27.9-1.1-53.5-5.8-76.7-14.3
				c-23.2-8.4-43.1-20-59.7-34.6c-4.8-4.1-9.1-8.8-13.4-13.5l0-138.2l-10.5,0v0h-21.6c2.6-11.8,7.1-23.1,12.7-33.9
				c10.4-19.5,24.4-35.9,42.1-49.2c17.7-13.3,38.4-23.3,62.3-29.8c17-4.7,34.5-7.3,52-8.1C637.8,135.2,641.2,135.2,644.6,135.1z"/>
			<path fill="#FFFFFF" d="M337.8,137.4c1.3,0,2.5,0,3.8,0c72.6,0,145.2,0,217.8,0c-17.4,6.2-33.7,15.3-48.6,26.2
				c-13.3,10.2-25.7,22.1-35.1,36.1H346.5c0,0-32.3-0.4-56.4,8.2c-13,4.7-24,10.2-35.4,20.1c-13.5,10.8-21.4,30-21.4,30
				c-5.2,12.1-7.8,25.2-7.8,39.4c0,14.4,2.6,27.6,7.8,39.6c5.2,12,12.7,22.4,22.5,31.2c9.8,8.8,21.4,15.7,35.1,20.6
				s28.8,7.4,45.7,7.4c17.2,0,32-1.7,44.4-5c10.1-2.7,20.1-5.9,29.7-10.2v-49.8h-64.1l0.1-55.8l134.2,0.1v153
				c-23.2,10.5-42.2,18.3-67.2,23.1c-25.2,4.6-51,6.9-77.2,6.9c-27.9,0-53.7-3.8-77.2-11.3c-23.5-7.5-43.9-18.2-61.1-32.2
				c-17.2-14-30.5-30.9-40.1-50.9c-9.6-19.9-14.4-42.1-14.4-66.6s4.8-46.7,14.4-66.6c9.6-19.9,23-36.9,40.1-50.9
				c16-14.7,35.8-25.9,59.3-33.4c3.5-1.2,4.1-1.5,8.6-2.6C287.8,138.4,315.1,137.4,337.8,137.4z"/>
		</g>
	</g>
</g>
</svg>
