<?xml version="1.0" encoding="utf-8"?>
<!-- Generator: Adobe Illustrator 18.1.1, SVG Export Plug-In . SVG Version: 6.00 Build 0)  -->
<svg version="1.1" id="Layer_1" xmlns="http://www.w3.org/2000/svg" xmlns:xlink="http://www.w3.org/1999/xlink" x="0px" y="0px"
	 width="600px" height="600px" viewBox="660 660 600 600" enable-background="new 660 660 600 600" xml:space="preserve">
<rect x="660" y="660" fill="none" width="600" height="600"/>
<g>
	<path fill="#0F4BA4" d="M660,831c0-28.1,22-50.9,49-50.9h505.2c27.1,0,49,22.8,49,50.9v233.3c0,28.1-22,50.9-49,50.9H709.1
		c-27.1,0-49-22.8-49-50.9V831H660z"/>
	<g>
		<path fill="#FFFFFF" d="M1142.4,847.8c7.5,0.1,4.2-0.1,9.7,0.1c6.3,0.2,12.9,1,19.6,2.2c6.8,1.2,13.4,3.1,20,5.5
			c6.6,2.4,12.7,5.6,18.7,9.4c5.9,3.8,11.2,8.5,15.9,13.9l-38.8,25c-4.6-5.2-10.4-9.3-17.3-12.3s-15-4.6-24.2-5
			c-9.2-0.4-17.8,0.8-25.8,3.6c-8,2.7-15,6.7-21,12c-6,5.2-10.7,11.6-14.3,19c-3.6,7.4-5.5,15.5-5.9,24.3c-0.4,9,0.9,17.3,3.9,24.9
			c2.9,7.6,7.2,14.2,12.6,20c5.4,5.7,11.9,10.2,19.5,13.6c7.6,3.4,15.7,5.2,24.5,5.6c10,0.4,19-1.1,27-4.4
			c7.9-3.3,14.5-8.1,19.8-14.4l39.9,27.8c-9.9,11-22.2,18.8-36.8,23.7c-14.7,4.8-29.7,6.9-45,6.4c-17.4-0.7-33.4-3.6-47.9-8.9
			c-4.4-1.6-8.7-3.5-13-5.5c3.6-2.8,6.7-6.1,9.8-9.3l7.2-7.9l-8.8-6.1l-39.9-27.8l-7.1-4.9l-5.6,6.6c-0.9,1-1.7,2-2.7,2.9l-1-2.2
			c-5.5-12.7-7.9-26.6-7.4-41.9c0.4-12.9,3.3-25.5,8.6-37.1c2.9,2.6,1.7,1.4,3.9,3.7l5.4,6.1l6.8-4.4l38.8-25l9.1-5.9l-7-8.2
			c-3.6-4.2-7.6-8-11.9-11.4c7.1-3.6,14.5-6.2,22.2-8.4c10.6-2.9,21.5-4.6,32.4-5.1C1138.2,847.9,1140.3,847.9,1142.4,847.8z"/>
		<path fill="#FFFFFF" d="M1002.5,846.4c7.5,0.1,4.2-0.1,9.7,0.1c6.3,0.2,12.9,1,19.6,2.2s13.4,3.1,20,5.5
			c6.6,2.4,12.7,5.6,18.7,9.4c5.9,3.8,11.2,8.5,15.9,13.9l-38.8,25c-4.6-5.2-10.4-9.3-17.3-12.3c-6.9-3-15-4.6-24.2-5
			c-9.2-0.4-17.8,0.8-25.8,3.6c-8,2.7-15,6.7-21,12c-6,5.2-10.7,11.6-14.3,19c-3.6,7.4-5.5,15.5-5.9,24.3c-0.4,9,0.9,17.3,3.9,24.9
			c2.9,7.6,7.2,14.2,12.6,20c5.4,5.7,11.9,10.2,19.5,13.6c7.6,3.4,15.7,5.2,24.5,5.6c10,0.4,19-1.1,27-4.4c7.9-3.3,14.5-8,19.8-14.4
			l39.9,27.8c-9.9,11-22.2,18.8-36.9,23.7c-14.7,4.9-29.6,7-45,6.4c-17.4-0.7-33.4-3.6-47.9-8.9c-14.5-5.2-26.9-12.5-37.3-21.6
			c-3-2.6-5.7-5.5-8.4-8.4v-86.2h-6.6l0,0h-13.5c1.6-7.4,4.4-14.4,7.9-21.2c6.5-12.2,15.2-22.4,26.3-30.7c11-8.3,24-14.5,38.9-18.6
			c10.6-2.9,21.5-4.6,32.4-5.1C998.3,846.5,1000.4,846.5,1002.5,846.4z"/>
		<path fill="#FFFFFF" d="M811.1,847.8c0.8,0,1.6,0,2.4,0c45.3,0,90.6,0,135.9,0c-10.9,3.9-21,9.5-30.3,16.3
			c-8.3,6.4-16,13.8-21.9,22.5h-80.6c0,0-20.2-0.2-35.2,5.1c-8.1,2.9-15,6.4-22.1,12.5c-8.4,6.7-13.4,18.7-13.4,18.7
			c-3.2,7.6-4.9,15.7-4.9,24.6c0,9,1.6,17.2,4.9,24.7c3.2,7.5,7.9,14,14,19.5s13.4,9.8,21.9,12.9c8.5,3.1,18,4.6,28.5,4.6
			c10.7,0,20-1.1,27.7-3.1c6.3-1.7,12.5-3.7,18.5-6.4v-31.1h-40l0.1-34.8l83.7,0.1v95.5c-14.5,6.6-26.3,11.4-41.9,14.4
			c-15.7,2.9-31.8,4.3-48.2,4.3c-17.4,0-33.5-2.4-48.2-7.1s-27.4-11.4-38.1-20.1c-10.7-8.7-19-19.3-25-31.8c-6-12.4-9-26.3-9-41.6
			s3-29.1,9-41.6c6-12.4,14.4-23,25-31.8c10-9.2,22.3-16.2,37-20.8c2.2-0.7,2.6-0.9,5.4-1.6C779.9,848.5,796.9,847.8,811.1,847.8z"
			/>
	</g>
</g>
</svg>
