<?xml version="1.0" encoding="utf-8"?>
<!-- Generator: Adobe Illustrator 18.1.1, SVG Export Plug-In . SVG Version: 6.00 Build 0)  -->
<svg version="1.1" id="Layer_1" xmlns="http://www.w3.org/2000/svg" xmlns:xlink="http://www.w3.org/1999/xlink" x="0px" y="0px"
	 width="750px" height="600px" viewBox="-734 661 750 600" enable-background="new -734 661 750 600" xml:space="preserve">
<rect x="-734" y="661" fill="none" width="750" height="600"/>
<g>
	<path fill="#0F4BA4" d="M-734,814.6c0-35,27.3-63.3,61-63.3H-45c33.7,0,61,28.3,61,63.3v290c0,35-27.3,63.3-60.9,63.3h-628.1
		c-33.7,0-60.9-28.3-60.9-63.3v-290H-734z"/>
	<g>
		<path fill="#FFFFFF" d="M-134.3,835.5c9.3,0.1,5.3-0.1,12,0.2c7.8,0.3,16,1.2,24.4,2.8c8.5,1.6,16.7,3.9,24.8,6.8
			c8.1,3,15.8,6.9,23.3,11.6c7.4,4.7,14,10.6,19.7,17.2l-48.3,31c-5.7-6.5-13-11.6-21.6-15.3s-18.6-5.7-30.1-6.2
			c-11.5-0.5-22.2,1-32.1,4.4c-9.9,3.4-18.6,8.4-26.1,15c-7.4,6.5-13.3,14.4-17.8,23.7c-4.4,9.2-6.8,19.3-7.3,30.3
			c-0.5,11.2,1.2,21.5,4.9,31c3.6,9.5,8.9,17.7,15.7,24.8c6.7,7.1,14.8,12.7,24.2,16.9c9.4,4.2,19.5,6.4,30.5,6.9
			c12.5,0.5,23.7-1.3,33.5-5.4c9.9-4.1,18-10.1,24.6-17.8l49.6,34.5c-12.3,13.7-27.5,23.4-45.8,29.5c-18.2,6-36.9,8.6-55.9,7.9
			c-21.6-0.9-41.5-4.5-59.5-11.1c-5.5-1.9-10.9-4.3-16.1-6.8c4.4-3.5,8.3-7.5,12.2-11.6l8.9-9.9l-10.9-7.6l-49.6-34.5l-8.8-6.1
			l-6.9,8.1c-1.1,1.2-2.2,2.5-3.4,3.6l-1.2-2.8c-6.8-15.7-9.9-33.1-9.2-52.1c0.5-16,4.1-31.7,10.7-46.2c3.6,3.3,2.1,1.7,4.8,4.6
			l6.7,7.5l8.5-5.4l48.3-31l11.3-7.3l-8.7-10.2c-4.5-5.2-9.4-10-14.8-14.1c8.8-4.5,18.1-7.7,27.5-10.4c13.2-3.6,26.8-5.7,40.3-6.3
			C-139.5,835.6-136.9,835.6-134.3,835.5z"/>
		<path fill="#FFFFFF" d="M-308.2,833.7c9.3,0.1,5.3-0.1,12,0.2c7.8,0.3,16,1.2,24.4,2.8c8.4,1.6,16.7,3.9,24.8,6.8
			c8.1,3,15.8,6.9,23.3,11.6c7.4,4.7,14,10.6,19.7,17.2l-48.3,31c-5.7-6.5-13-11.6-21.6-15.3c-8.6-3.7-18.6-5.7-30.1-6.2
			s-22.2,1-32.1,4.4c-9.9,3.4-18.6,8.4-26.1,15c-7.4,6.5-13.3,14.4-17.8,23.7s-6.8,19.3-7.3,30.3c-0.5,11.2,1.2,21.5,4.9,31
			c3.6,9.5,8.9,17.7,15.7,24.8c6.7,7.1,14.8,12.7,24.2,16.9c9.4,4.2,19.5,6.4,30.5,6.9c12.5,0.5,23.7-1.3,33.5-5.4
			c9.9-4.1,18-10,24.6-17.8l49.6,34.5c-12.3,13.7-27.5,23.4-45.8,29.5c-18.2,6.1-36.8,8.7-55.9,7.9c-21.6-0.9-41.5-4.5-59.5-11.1
			c-18-6.5-33.4-15.5-46.3-26.8c-3.7-3.2-7.1-6.8-10.4-10.5V927.8h-8.1l0,0h-16.8c2-9.2,5.5-17.9,9.9-26.3
			c8.1-15.1,18.9-27.8,32.7-38.2c13.7-10.3,29.8-18.1,48.3-23.1c13.2-3.6,26.8-5.7,40.3-6.3C-313.5,833.8-310.8,833.8-308.2,833.7z"
			/>
		<path fill="#FFFFFF" d="M-546.2,835.5c1,0,1.9,0,2.9,0c56.3,0,112.6,0,169,0c-13.5,4.8-26.1,11.9-37.7,20.3
			c-10.3,7.9-19.9,17.1-27.2,28h-100.2c0,0-25.1-0.3-43.8,6.4c-10.1,3.6-18.6,7.9-27.5,15.6c-10.5,8.4-16.6,23.3-16.6,23.3
			c-4,9.4-6.1,19.5-6.1,30.6c0,11.2,2,21.4,6.1,30.7c4,9.3,9.9,17.4,17.5,24.2c7.6,6.8,16.6,12.2,27.2,16
			c10.6,3.8,22.3,5.7,35.5,5.7c13.3,0,24.8-1.3,34.4-3.9c7.8-2.1,15.6-4.6,23-7.9v-38.6h-49.7l0.1-43.3l104.1,0.1v118.7
			c-18,8.1-32.7,14.2-52.1,17.9c-19.5,3.6-39.6,5.4-59.9,5.4c-21.6,0-41.7-2.9-59.9-8.8c-18.2-5.8-34.1-14.1-47.4-25
			c-13.3-10.9-23.7-24-31.1-39.5c-7.4-15.4-11.2-32.7-11.2-51.7s3.7-36.2,11.2-51.7c7.4-15.4,17.8-28.6,31.1-39.5
			c12.4-11.4,27.8-20.1,46-25.9c2.7-0.9,3.2-1.2,6.7-2C-585,836.3-563.8,835.5-546.2,835.5z"/>
	</g>
</g>
</svg>
