<?xml version="1.0" encoding="utf-8"?>
<!-- Generator: Adobe Illustrator 18.1.1, SVG Export Plug-In . SVG Version: 6.00 Build 0)  -->
<svg version="1.1" id="Layer_1" xmlns="http://www.w3.org/2000/svg" xmlns:xlink="http://www.w3.org/1999/xlink" x="0px" y="0px"
	 width="142.7px" height="131.5px" viewBox="0 0 142.7 131.5" enable-background="new 0 0 142.7 131.5" xml:space="preserve">
<g>
	<g>
		<defs>
			<rect id="SVGID_1_" x="0" y="0" width="142.7" height="131.5"/>
		</defs>
		<clipPath id="SVGID_2_">
			<use xlink:href="#SVGID_1_"  overflow="visible"/>
		</clipPath>
		<path clip-path="url(#SVGID_2_)" fill="#236735" d="M127.4,29c6.8,9.3,11.5,19.8,13.6,30.3c1.2,5.6,1.5,11.2,1.1,16.5
			c-0.4,5.7-1.8,11.1-4,16.1c-2.2,4.9-5,9.2-8.8,13.1c-3.4,3.6-7.6,6.7-12.6,9.6c-11.9,6.8-28.4,12.4-44.3,15.1
			c-8.8,1.5-17,2.1-24.6,1.7c-8.3-0.4-15.6-1.9-21.5-4.5c-8.8-3.9-14.6-10-17.1-18.3C7,101.5,7.3,92.9,9.9,83
			c1.7-6.8,4.2-12.6,6.7-18.4c3.3-7.4,6.8-14.4,10.4-20.7C31.6,36,36.4,29,41.4,23.2C54,8.3,67.6,0.5,81.9,0C86.4-0.2,92.3,1,97,3
			c7.5,3.3,20.5,13.6,29.6,24.8L127.4,29z"/>
		<path clip-path="url(#SVGID_2_)" fill="#A2CE9B" d="M95.1,1.4c-0.8,0-1.6,0-2.4,0.1C94.2,1.9,95.7,2.4,97,3
			c7.5,3.3,20.5,13.6,29.6,24.8l0.8,1.2c6.8,9.3,11.5,19.8,13.6,30.3c1,5.1,1.5,10.2,1.2,15.1c0.8-7.6,0.5-15.6-0.9-23.5l-0.2-1.4
			c-3.4-14.1-10.6-29-15.9-35.2c-3.3-3.9-8.2-7.5-12.3-9.2C107.3,2.6,101.4,1.4,95.1,1.4 M41.9,22.5C36.7,26.3,31.3,30.5,26,35
			c-4.8,4.1-9.5,8.3-14,13.6C5.4,56.5,1.4,64.2,0.3,71.5C-1,80,1.6,88,7.8,95.3c0.2-3.9,0.9-8,2.1-12.4c1.7-6.8,4.2-12.6,6.7-18.4
			c3.3-7.4,6.8-14.4,10.4-20.7C31.6,36,36.4,29,41.4,23.2C41.5,23,41.7,22.8,41.9,22.5 M136.3,95.6c-1.9,3.4-4.2,6.5-7,9.4
			c-3.4,3.6-7.6,6.7-12.6,9.6c-5.5,3.1-12.1,6-19.1,8.5c4.6-0.5,8.7-1.5,12.5-2.9c5.1-1.9,9.5-4.5,13.6-8c4.2-3.6,7.7-7.9,10.6-12.8
			C135,98.2,135.7,96.9,136.3,95.6"/>
		<path clip-path="url(#SVGID_2_)" fill="#308841" d="M92.8,1.5c-8.2,0.4-17,2.7-26.5,6.9c-7,3.1-14.4,7.3-21.9,12.5
			c-0.8,0.6-1.6,1.1-2.4,1.7c-0.2,0.2-0.4,0.4-0.6,0.6C36.4,29,31.6,36,27,43.9c-3.7,6.3-7.2,13.3-10.4,20.7
			c-2.5,5.8-5,11.6-6.7,18.4C8.7,87.4,8,91.5,7.8,95.3c0,0,0,0,0.1,0.1c4.2,4.9,10.1,9.4,17.5,13.4c6.6,3.6,14.4,6.6,22.9,9.1
			c13,3.7,27.4,5.8,39.7,5.8c2.4,0,4.6-0.1,6.8-0.2c1-0.1,2-0.2,3-0.3c7-2.5,13.6-5.4,19.1-8.5c5-2.9,9.1-6,12.6-9.6
			c2.8-2.9,5.1-6,7-9.4c1.7-3.6,3.1-7.5,4.1-11.6c0.8-3.1,1.4-6.3,1.7-9.6c0.2-4.9-0.2-10-1.2-15.1c-2.1-10.5-6.8-21-13.6-30.3
			l-0.8-1.2C117.5,16.6,104.4,6.3,97,3C95.7,2.4,94.2,1.9,92.8,1.5"/>
	</g>
	<polygon fill="#FFFFFF" points="22.3,52.1 38,52.1 45.3,73.3 45.4,73.3 52.7,52.1 68.4,52.1 68.4,84.3 58.3,84.3 58.3,60.2 
		58.2,60.2 49.7,84.3 40.9,84.3 32.5,60.2 32.4,60.2 32.4,84.3 22.3,84.3 	"/>
	<g>
		<defs>
			<rect id="SVGID_3_" x="0" y="0" width="142.7" height="131.5"/>
		</defs>
		<clipPath id="SVGID_4_">
			<use xlink:href="#SVGID_3_"  overflow="visible"/>
		</clipPath>
		<path clip-path="url(#SVGID_4_)" fill="#FFFFFF" d="M80.2,66.9h9.5c3,0,4.3-1.2,4.3-4.1c0-2.8-1.3-4.1-4.3-4.1h-9.5V66.9z
			 M69.5,52.1h23.8c8.7,0,11.8,4.6,11.8,10.7c0,5.3-2.7,10.7-11.3,10.7H80.2v10.7H69.5V52.1z"/>
		<path clip-path="url(#SVGID_4_)" fill="#FFFFFF" d="M114.8,77.1h9c6.1,0,7.8-4.5,7.8-8.9c0-6-2.9-8.8-8.6-8.8h-8.1V77.1z
			 M104.1,52.1h23.2c9.9,0,15.3,5.4,15.3,16.1c0,12.6-7.5,16.1-16.7,16.1h-21.8V52.1z"/>
		<path clip-path="url(#SVGID_4_)" fill="#236735" d="M104.7,65.6c-0.5,0.4-1.4,0.7-2.2,0.7c-1.6,0-2.4-0.9-2.4-1.9
			c0-0.6,0.5-1.4,1.3-1.7L104.7,65.6z M112.6,68.3l-3.4-3c0.9-0.9,1.4-1.5,2.1-2.6l-2-1.4c-0.6,0.8-1.3,1.7-2,2.2l-2.4-2.2
			c1.5-0.4,2.7-1.2,2.7-2.8c0-1.8-1.7-2.9-4.7-2.9c-2.6,0-4.7,1-4.7,3c0,1,0.7,1.8,1.2,2.2c-2,0.5-3.5,1.5-3.5,3.7
			c0,2.1,1.6,4,5.4,4c2.3,0,3.9-0.6,5-1.4l1.1,1H112.6z M102.1,58.7c0-0.6,0.6-0.9,1.3-0.9c0.7,0,1.1,0.4,1.1,0.9
			c0,0.5-0.5,1-1.4,1.3C102.6,59.7,102.1,59.1,102.1,58.7"/>
	</g>
</g>
</svg>
