<?xml version="1.0" encoding="utf-8"?>
<!-- Generator: Adobe Illustrator 18.1.1, SVG Export Plug-In . SVG Version: 6.00 Build 0)  -->
<svg version="1.1" id="Layer_1" xmlns="http://www.w3.org/2000/svg" xmlns:xlink="http://www.w3.org/1999/xlink" x="0px" y="0px"
	 width="600px" height="600px" viewBox="-659 661 600 600" enable-background="new -659 661 600 600" xml:space="preserve">
<g>
	<g>
		<g>
			<rect x="-659" y="796.5" fill="#00B4EF" width="600" height="312.9"/>
		</g>
	</g>
	<g>
		<path fill="#FFFFFF" d="M-324,933.2c-7.9-7.9-18.3-12.6-30.4-12.6c-26.8,0-47.9,20.5-47.9,46.8c0,26,21.6,47,47.9,47
			c12.3,0,22.4-4.4,30.6-12.6c0,3.8,0,10.4,0,10.4h16.1v-89.4H-324C-324,922.8-324,929.4-324,933.2z M-354.6,999.4
			c-17.2,0-31.4-14.5-31.4-31.7s14.5-31.7,31.4-31.7s30.6,14.2,30.6,32C-324,985.4-337.7,999.4-354.6,999.4z"/>
		<path fill="#FFFFFF" d="M-454.2,920.9c-8.5,0-16.7,3.3-23,8.5c0-9.6,0-36.1,0-36.1h-16.1v119.2h16.1v-49c0-7.4,0.5-11.8,2.2-15
			c3.3-7.4,12-12.6,20.8-12.6c14.2,0,23.8,10.9,23.8,27.3v49.2h16.1v-49C-414,937.9-430.1,920.9-454.2,920.9z"/>
		<path fill="#FFFFFF" d="M-517.9,951.5c-5.7-4.6-7.9-5.5-22.4-9.6c-17.2-4.6-20.2-9.6-20.2-17.8c0-9.6,7.4-17.2,17-17.2
			c9.8,0,17,7.1,17.8,18l0.3,2.5h17v-2.7c0-19.1-14.8-33.4-34.2-33.4c-19.7,0-34.7,14.2-34.7,33.4c0,8.8,3,16.7,8.8,22.2
			c4.9,5.2,9.8,7.4,22.4,10.7c9,2.2,12.9,3.8,16.7,7.1c4.4,3.6,6.8,8.8,6.8,14.2c0,10.9-9.3,20.2-20.5,20.2
			c-4.6,0-10.1-2.2-13.7-5.2c-4.1-3.8-6-8.2-6.8-15.9l-0.3-2.5h-17.5v2.7c0.8,21.3,16.7,36.4,38,36.4c20.5,0,37.5-16.1,37.5-36.1
			C-505.6,968.2-510.2,958.1-517.9,951.5z"/>
		<g>
			<rect x="-153.9" y="893.3" fill="#FFFFFF" width="17" height="82.3"/>
			<rect x="-153.9" y="987.6" fill="#FFFFFF" width="17" height="24.9"/>
		</g>
		<path fill="#FFFFFF" d="M-166.7,922.8h-20.5c0,0-27.9,36.4-35.6,45.9c0-13.1,0-75.5,0-75.5h-16.1v119.2h16.1c0,0,0-16.1,0-17.8
			c0.8-1.1,7.9-10.1,10.7-13.7c3.8,4.1,26.3,31.4,26.3,31.4h21.1c0,0-34.5-41.3-37.2-44.3C-199.6,964.9-166.7,922.8-166.7,922.8z"/>
		<path fill="#FFFFFF" d="M-276.7,929.1c0-1.4,0-6.3,0-6.3h-16.1v89.7h17v-51.7c0-8.5,1.9-12.9,7.7-17.8c4.1-3.3,7.1-4.6,13.7-5.5
			l2.5-0.3v-16.7l-3,0.3C-265.2,921.4-271.8,923.9-276.7,929.1z"/>
	</g>
	<polygon fill="#00B4EF" points="-494.4,1199.6 -494.4,1087.2 -600.2,1087.2 	"/>
</g>
<rect x="-659" y="661" fill="none" width="600" height="600"/>
</svg>
