<?xml version="1.0" encoding="utf-8"?>
<!-- Generator: Adobe Illustrator 18.1.1, SVG Export Plug-In . SVG Version: 6.00 Build 0)  -->
<svg version="1.1" id="Layer_1" xmlns="http://www.w3.org/2000/svg" xmlns:xlink="http://www.w3.org/1999/xlink" x="0px" y="0px"
	 width="750px" height="600px" viewBox="-734 661 750 600" enable-background="new -734 661 750 600" xml:space="preserve">
<g>
	<g>
		<g>
			<g>
				<rect x="-734" y="756" fill="#00B4EF" width="750" height="391.1"/>
			</g>
		</g>
		<g>
			<path fill="#FFFFFF" d="M-315.2,926.9c-9.9-9.9-22.9-15.7-38-15.7c-33.5,0-59.9,25.6-59.9,58.5c0,32.5,27,58.7,59.9,58.7
				c15.4,0,28-5.5,38.2-15.7c0,4.8,0,13,0,13h20.1V913.9h-20.4C-315.2,913.9-315.2,922.1-315.2,926.9z M-353.5,1009.6
				c-21.5,0-39.3-18.1-39.3-39.6c0-21.5,18.1-39.6,39.3-39.6s38.2,17.8,38.2,40C-315.2,992.1-332.4,1009.6-353.5,1009.6z"/>
			<path fill="#FFFFFF" d="M-478,911.5c-10.6,0-20.9,4.1-28.8,10.6c0-12,0-45.1,0-45.1h-20.1v149h20.1v-61.3
				c0-9.2,0.6-14.7,2.8-18.8c4.1-9.2,15-15.7,26-15.7c17.8,0,29.7,13.6,29.7,34.1v61.5h20.1v-61.2
				C-427.8,932.7-447.9,911.5-478,911.5z"/>
			<path fill="#FFFFFF" d="M-557.6,949.7c-7.1-5.7-9.9-6.9-28-12c-21.5-5.8-25.2-12-25.2-22.2c0-12,9.2-21.5,21.2-21.5
				c12.2,0,21.2,8.9,22.2,22.5l0.4,3.1h21.2v-3.4c0-23.9-18.5-41.8-42.8-41.8c-24.6,0-43.4,17.8-43.4,41.8c0,11,3.8,20.9,11,27.8
				c6.1,6.5,12.2,9.2,28,13.4c11.2,2.8,16.1,4.8,20.9,8.9c5.5,4.5,8.5,11,8.5,17.8c0,13.6-11.6,25.2-25.6,25.2
				c-5.8,0-12.6-2.8-17.1-6.5c-5.1-4.8-7.5-10.3-8.5-19.9l-0.4-3.1H-637v3.4c1,26.6,20.9,45.5,47.5,45.5c25.6,0,46.9-20.1,46.9-45.1
				C-542.2,970.6-548,958-557.6,949.7z"/>
			<g>
				<rect x="-102.6" y="877" fill="#FFFFFF" width="21.2" height="102.9"/>
				<rect x="-102.6" y="994.9" fill="#FFFFFF" width="21.2" height="31.1"/>
			</g>
			<path fill="#FFFFFF" d="M-118.6,913.9h-25.6c0,0-34.9,45.5-44.5,57.4c0-16.4,0-94.4,0-94.4h-20.1v149h20.1c0,0,0-20.1,0-22.2
				c1-1.4,9.9-12.6,13.4-17.1c4.8,5.1,32.9,39.3,32.9,39.3h26.4c0,0-43.1-51.6-46.5-55.4C-159.7,966.5-118.6,913.9-118.6,913.9z"/>
			<path fill="#FFFFFF" d="M-256.1,921.7c0-1.8,0-7.9,0-7.9h-20.1V1026h21.2v-64.6c0-10.6,2.4-16.1,9.6-22.2
				c5.1-4.1,8.9-5.7,17.1-6.9l3.1-0.4V911l-3.8,0.4C-241.7,912.1-250,915.2-256.1,921.7z"/>
		</g>
		<polygon fill="#00B4EF" points="-528.2,1259.9 -528.2,1119.4 -660.5,1119.4 		"/>
	</g>
	<rect x="-734" y="661" fill="none" width="750" height="600"/>
</g>
</svg>
