<?xml version="1.0" encoding="utf-8"?>
<!-- Generator: Adobe Illustrator 18.1.1, SVG Export Plug-In . SVG Version: 6.00 Build 0)  -->
<svg version="1.1" id="Layer_1" xmlns="http://www.w3.org/2000/svg" xmlns:xlink="http://www.w3.org/1999/xlink" x="0px" y="0px"
	 width="220px" height="148px" viewBox="0 0 220 148" enable-background="new 0 0 220 148" xml:space="preserve">
<g>
	<defs>
		<rect id="SVGID_1_" x="0.1" y="0.6" width="219.3" height="147.4"/>
	</defs>
	<clipPath id="SVGID_2_">
		<use xlink:href="#SVGID_1_"  overflow="visible"/>
	</clipPath>
	<g clip-path="url(#SVGID_2_)">
		<defs>
			<rect id="SVGID_3_" width="220" height="148"/>
		</defs>
		<clipPath id="SVGID_4_">
			<use xlink:href="#SVGID_3_"  overflow="visible"/>
		</clipPath>
		<rect x="0.1" y="0.6" clip-path="url(#SVGID_4_)" fill="#00B5EF" width="219.3" height="114.4"/>
	</g>
</g>
<g>
	<defs>
		<rect id="SVGID_5_" width="220" height="148"/>
	</defs>
	<clipPath id="SVGID_6_">
		<use xlink:href="#SVGID_5_"  overflow="visible"/>
	</clipPath>
	<path clip-path="url(#SVGID_6_)" fill="#FFFFFF" d="M122.5,50.6c-2.9-2.9-6.7-4.6-11.1-4.6c-9.8,0-17.5,7.5-17.5,17.1
		c0,9.5,7.9,17.2,17.5,17.2c4.5,0,8.2-1.6,11.2-4.6c0,1.4,0,3.8,0,3.8l5.9,0V46.8h-6C122.5,46.8,122.5,49.2,122.5,50.6 M111.3,74.8
		c-6.3,0-11.5-5.3-11.5-11.6c0-6.3,5.3-11.6,11.5-11.6c6.2,0,11.2,5.2,11.2,11.7C122.5,69.6,117.5,74.8,111.3,74.8z"/>
	<path clip-path="url(#SVGID_6_)" fill="#FFFFFF" d="M74.9,46.1c-3.1,0-6.1,1.2-8.4,3.1c0-3.5,0-13.2,0-13.2l-5.9,0v43.5h5.9V61.7
		c0-2.7,0.2-4.3,0.8-5.5c1.2-2.7,4.4-4.6,7.6-4.6c5.2,0,8.7,4,8.7,10v17.9h5.9V61.7C89.6,52.3,83.7,46.1,74.9,46.1"/>
	<path clip-path="url(#SVGID_6_)" fill="#FFFFFF" d="M51.6,57.3c-2.1-1.7-2.9-2-8.2-3.5c-6.3-1.7-7.4-3.5-7.4-6.5
		c0-3.5,2.7-6.3,6.2-6.3c3.6,0,6.2,2.6,6.5,6.6l0.1,0.9l6.2,0v-1c0-7-5.4-12.2-12.5-12.2c-7.2,0-12.7,5.2-12.7,12.2
		c0,3.2,1.1,6.1,3.2,8.1c1.8,1.9,3.6,2.7,8.2,3.9c3.3,0.8,4.7,1.4,6.1,2.6c1.6,1.3,2.5,3.2,2.5,5.2c0,4-3.4,7.4-7.5,7.4
		c-1.7,0-3.7-0.8-5-1.9c-1.5-1.4-2.2-3-2.5-5.8L34.8,66l-6.4,0l0,1c0.3,7.8,6.1,13.3,13.9,13.3c7.5,0,13.7-5.9,13.7-13.2
		C56.1,63.4,54.4,59.7,51.6,57.3"/>
	<polyline clip-path="url(#SVGID_6_)" fill="#FFFFFF" points="184.7,36 184.7,66.1 190.9,66.1 190.9,36 184.7,36 	"/>
	<rect x="184.7" y="70.5" clip-path="url(#SVGID_6_)" fill="#FFFFFF" width="6.2" height="9.1"/>
	<path clip-path="url(#SVGID_6_)" fill="#FFFFFF" d="M180,46.8l-7.5,0c0,0-10.2,13.3-13,16.8c0-4.8,0-27.6,0-27.6l-5.9,0v43.5l5.9,0
		c0,0,0-5.9,0-6.5c0.3-0.4,2.9-3.7,3.9-5c1.3,1.6,9.6,11.6,9.6,11.6l7.7,0c0,0-12.6-15.1-13.6-16.2C168,62.2,180,46.8,180,46.8"/>
	<path clip-path="url(#SVGID_6_)" fill="#FFFFFF" d="M139.8,49.1c0-0.5,0-2.3,0-2.3l-5.9,0v32.8l6.2,0V60.7c0-3.1,0.7-4.7,2.8-6.5
		c1.5-1.2,2.6-1.7,5-2l0.9-0.1V46l-1.1,0.1C144,46.3,141.6,47.2,139.8,49.1"/>
	<polyline clip-path="url(#SVGID_6_)" fill="#00B5EF" points="60.2,148 60.2,106.9 21.5,106.9 60.2,148 	"/>
</g>
</svg>
