<?xml version="1.0" encoding="utf-8"?>
<!-- Generator: Adobe Illustrator 18.1.1, SVG Export Plug-In . SVG Version: 6.00 Build 0)  -->
<svg version="1.1" id="Layer_1" xmlns="http://www.w3.org/2000/svg" xmlns:xlink="http://www.w3.org/1999/xlink" x="0px" y="0px"
	 width="140.3px" height="129.2px" viewBox="0 0 140.3 129.2" enable-background="new 0 0 140.3 129.2" xml:space="preserve">
<g>
	<g>
		<defs>
			<rect id="SVGID_1_" x="0" y="0" width="140.3" height="129.2"/>
		</defs>
		<clipPath id="SVGID_2_">
			<use xlink:href="#SVGID_1_"  overflow="visible"/>
		</clipPath>
		<path clip-path="url(#SVGID_2_)" fill="#263C91" d="M125.5,28.6c6.7,9.2,11.3,19.5,13.4,29.8c1.1,5.6,1.5,11,1.1,16.3
			c-0.4,5.6-1.7,11-3.9,15.9c-2.1,4.9-5,9.1-8.6,12.9c-3.4,3.5-7.4,6.6-12.4,9.4c-11.7,6.6-28,12.2-43.7,14.9
			c-8.6,1.5-16.8,2-24.2,1.7c-8.2-0.4-15.3-1.9-21.2-4.5c-8.7-3.8-14.4-9.9-16.9-18c-2.1-7-1.9-15.5,0.7-25.3
			c1.7-6.7,4.1-12.4,6.6-18.1c3.2-7.3,6.7-14.2,10.3-20.4c4.5-7.8,9.2-14.6,14.1-20.4C53.2,8.2,66.6,0.5,80.6,0
			C85.1-0.2,90.9,1,95.5,3c7.3,3.2,20.2,13.4,29.2,24.5L125.5,28.6z"/>
		<path clip-path="url(#SVGID_2_)" fill="#A6D9F5" d="M93.7,1.4c-0.8,0-1.5,0-2.3,0.1c1.5,0.4,2.9,0.9,4.2,1.5
			c7.3,3.2,20.2,13.4,29.2,24.5l0.8,1.1c6.7,9.2,11.3,19.5,13.4,29.8c1,5.1,1.4,10.1,1.2,14.9c0.8-7.5,0.5-15.4-0.9-23.2l-0.2-1.4
			c-3.3-13.9-10.5-28.6-15.7-34.7c-3.3-3.8-8-7.4-12.2-9.1C105.7,2.6,99.9,1.4,93.7,1.4 M41.3,22.2c-5.2,3.7-10.4,7.8-15.7,12.3
			c-4.7,4.1-9.4,8.2-13.8,13.4C5.3,55.6,1.4,63.2,0.3,70.4c-1.3,8.4,1.2,16.3,7.4,23.5c0.2-3.8,0.9-7.9,2-12.2
			c1.7-6.7,4.1-12.4,6.6-18.1c3.2-7.3,6.7-14.2,10.3-20.4c4.5-7.8,9.2-14.6,14.1-20.4C40.9,22.6,41.1,22.4,41.3,22.2 M134.3,94.2
			c-1.9,3.4-4.1,6.4-6.9,9.3c-3.4,3.5-7.4,6.6-12.4,9.4c-5.4,3.1-11.9,6-18.8,8.4c4.5-0.5,8.5-1.5,12.3-2.9c5-1.9,9.4-4.4,13.4-7.9
			c4.1-3.5,7.6-7.8,10.4-12.6C133,96.7,133.7,95.4,134.3,94.2"/>
	</g>
	<g>
		<defs>
			<rect id="SVGID_3_" x="0" y="0" width="140.3" height="129.2"/>
		</defs>
		<clipPath id="SVGID_4_">
			<use xlink:href="#SVGID_3_"  overflow="visible"/>
		</clipPath>
		<path clip-path="url(#SVGID_4_)" fill="#2A7ABC" d="M91.4,1.5c-8.1,0.4-16.8,2.6-26.1,6.8c-6.9,3.1-14.1,7.2-21.6,12.3
			c-0.8,0.5-1.6,1.1-2.4,1.7c-0.2,0.2-0.4,0.4-0.5,0.6c-4.9,5.7-9.6,12.6-14.1,20.4c-3.6,6.2-7.1,13.1-10.3,20.4
			c-2.5,5.7-4.9,11.4-6.6,18.1c-1.1,4.3-1.8,8.4-2,12.2L7.8,94c4.2,4.9,10,9.3,17.2,13.2c6.5,3.5,14.1,6.5,22.6,8.9
			c12.8,3.7,26.9,5.7,39.1,5.7c2.3,0,4.6-0.1,6.7-0.2c1-0.1,2-0.2,2.9-0.3c6.9-2.4,13.4-5.3,18.8-8.4c4.9-2.8,9-5.9,12.4-9.4
			c2.7-2.8,5-5.9,6.9-9.3c1.7-3.6,3.1-7.4,4.1-11.4c0.8-3.1,1.3-6.2,1.7-9.5c0.2-4.8-0.2-9.8-1.2-14.9c-2.1-10.3-6.7-20.6-13.4-29.8
			l-0.8-1.1c-9-11.1-21.8-21.3-29.2-24.5C94.2,2.4,92.8,1.9,91.4,1.5"/>
	</g>
	<polygon fill="#FFFFFF" points="27.6,41.1 44.8,41.1 50.6,68.5 50.7,68.5 57.3,41.1 71.4,41.1 77.9,68.5 78.1,68.5 83.8,41.1 
		101,41.1 87.8,86 70.5,86 64.4,61.1 64.2,61.1 58.1,86 40.7,86 	"/>
	<polygon fill="#FFFFFF" points="93,41.1 110.7,41.1 110.7,73.9 138.1,73.9 138.1,85.9 93,85.9 	"/>
	<g>
		<defs>
			<rect id="SVGID_5_" x="0" y="0" width="140.3" height="129.2"/>
		</defs>
		<clipPath id="SVGID_6_">
			<use xlink:href="#SVGID_5_"  overflow="visible"/>
		</clipPath>
		<path clip-path="url(#SVGID_6_)" fill="#2A7ABC" d="M93.8,51.9c0-0.8,0.8-1.2,1.7-1.2c1,0,1.6,0.5,1.6,1.2c0,0.7-0.6,1.3-1.9,1.8
			C94.5,53.2,93.8,52.5,93.8,51.9 M108,64.9l-4.5-4c1.2-1.1,1.9-2,2.8-3.4l-2.6-1.9c-0.8,1.1-1.8,2.3-2.7,3l-3.2-3
			c2.1-0.6,3.7-1.6,3.7-3.7c0-2.5-2.3-3.9-6.3-3.9c-3.4,0-6.3,1.3-6.3,4.1c0,1.4,1,2.4,1.7,3c-2.7,0.6-4.8,2-4.8,5
			c0,2.8,2.2,5.4,7.3,5.4c3.2,0,5.3-0.9,6.8-1.9l1.5,1.4H108z M97.3,61.2c-0.7,0.5-1.9,0.9-2.9,0.9c-2.2,0-3.3-1.3-3.3-2.6
			c0-0.8,0.7-1.9,1.8-2.3L97.3,61.2z"/>
	</g>
	<g>
		<path fill="#FFFFFF" d="M41.3,92.2h5.2V94h0.1c1.1-1.4,3-2.2,5.2-2.2c4.8,0,8,2.7,8,7.4c0,4-2.9,7.2-7.9,7.2
			c-2.4,0-4.2-0.8-5.1-1.8h-0.1v6.2h-5.3V92.2z M50.4,102.5c2.4,0,3.8-1.2,3.8-3.5c0-2.3-1.3-3.5-3.8-3.5c-2.5,0-3.8,1.4-3.8,3.5
			C46.6,101.2,47.9,102.5,50.4,102.5z"/>
		<path fill="#FFFFFF" d="M61.9,92.2h5.3v2.7h0.1c1.1-1.8,3.2-3.1,5.6-3.1c0.6,0,1.3,0.1,1.8,0.2v5c-0.7-0.3-1.9-0.5-2.9-0.5
			c-3,0-4.4,1.6-4.4,4v5.3h-5.3V92.2z"/>
		<path fill="#FFFFFF" d="M76.4,87.4h5.3v3.2h-5.3V87.4z M76.4,92.2h5.3v13.7h-5.3V92.2z"/>
		<path fill="#FFFFFF" d="M84.6,92.2h5.2v2h0.1c1.1-1.3,3-2.3,5.7-2.3c3.4,0,5.8,1.6,5.8,5v9h-5.3v-7.4c0-1.7-1-2.6-2.8-2.6
			c-1.9,0-3.3,1-3.3,3.3v6.7h-5.3V92.2z"/>
	</g>
	<g>
		<path fill="#FFFFFF" d="M102.8,92.2h2.8v-4.3h5.3v4.3h3.5v3.5H111v5.5c0,1.2,0.3,1.4,1.7,1.4c0.7,0,1.2,0,1.9-0.1v3.3
			c-1.1,0.2-2.5,0.3-4.1,0.3c-3.5,0-4.9-0.9-4.9-3.8v-6.6h-2.8V92.2z"/>
	</g>
</g>
</svg>
