<?xml version="1.0" encoding="utf-8"?>
<!-- Generator: Adobe Illustrator 18.1.1, SVG Export Plug-In . SVG Version: 6.00 Build 0)  -->
<svg version="1.1" id="Camada_1" xmlns="http://www.w3.org/2000/svg" xmlns:xlink="http://www.w3.org/1999/xlink" x="0px" y="0px"
	 width="100px" height="100px" viewBox="-370 248.3 100 100" enable-background="new -370 248.3 100 100" xml:space="preserve">
<rect x="-370" y="248.3" fill="none" width="100" height="100"/>
<g>
	<path fill="#FFFFFF" d="M-295.8,312.4v-37.4l-18.3-18.4l-39.6,0v80h25.3v3.2h42v-27.5H-295.8z M-313.9,261.1l13.8,14h-13.8V261.1z
		 M-350.6,333.6v-73.9l35.2,0v16.9h16.6v35.8h-29.5v21.2H-350.6z M-289.4,336.9h-35.9v-21.3h35.9V336.9z"/>
	<path fill="#FFFFFF" d="M-316.4,321.7c-0.1-0.7-0.2-1.4-0.3-2.2c0,0.4-0.1,0.8-0.1,1.1c-0.1,0.4-0.1,0.8-0.2,1.2l-0.2,0.8h1
		L-316.4,321.7z"/>
	<path fill="#FFFFFF" d="M-313.7,327.1l3-5.1l-3-5.1h-5.9l-3,5.1l3,5.1H-313.7z M-317,318.2h0.7l1.4,6.3h-0.8l-0.2-1.2h-1.2
		l-0.2,1.2h-0.8L-317,318.2z"/>
	<path fill="#FFFFFF" d="M-339.5,268.4c-0.1-0.8-0.3-1.6-0.4-2.6c0,0.4-0.1,0.9-0.2,1.3c-0.1,0.5-0.2,0.9-0.2,1.4l-0.2,0.9h1.2
		L-339.5,268.4z"/>
	<path fill="#FFFFFF" d="M-336.4,274.8l3.5-6l-3.5-6h-6.9l-3.5,6l3.5,6H-336.4z M-340.2,264.5h0.8l1.6,7.4h-1l-0.3-1.4h-1.5
		l-0.3,1.4h-1L-340.2,264.5z"/>
	<rect x="-319.6" y="330" fill="#FFFFFF" width="10.4" height="1.5"/>
	<rect x="-319.5" y="333.3" fill="#FFFFFF" width="15.2" height="1.5"/>
	<rect x="-343.7" y="278.5" fill="#FFFFFF" width="12.1" height="1.5"/>
	<rect x="-343.7" y="282.2" fill="#FFFFFF" width="17.8" height="1.5"/>
</g>
</svg>
