<?xml version="1.0" encoding="utf-8"?>
<!-- Generator: Adobe Illustrator 18.1.1, SVG Export Plug-In . SVG Version: 6.00 Build 0)  -->
<svg version="1.1" id="Camada_1" xmlns="http://www.w3.org/2000/svg" xmlns:xlink="http://www.w3.org/1999/xlink" x="0px" y="0px"
	 width="100px" height="100px" viewBox="-370 248.3 100 100" enable-background="new -370 248.3 100 100" xml:space="preserve">
<rect x="-370" y="248.3" fill="none" width="100" height="100"/>
<g id="Calendar_2_x40_2x.png">
	<g>
		<path fill="#FFFFFF" d="M-298.5,307.3h-7.6v7.6h7.6V307.3z M-310,294h-7.6v7.6h7.6V294z M-310,307.3h-7.6v7.6h7.6V307.3z
			 M-310,320.7h-7.6v7.6h7.6V320.7z M-298.5,294h-7.6v7.6h7.6V294z M-287,294h-7.6v7.6h7.6V294z M-321.4,294h-7.6v7.6h7.6V294z
			 M-287,307.3h-7.6v7.6h7.6V307.3z M-344.3,320.7h-7.6v7.6h7.6V320.7z M-344.3,294h-7.6v7.6h7.6V294z M-344.3,307.3h-7.6v7.6h7.6
			V307.3z M-285.1,263.4h-7.6v-5.7c0-1.1-0.9-1.9-1.9-1.9s-1.9,0.9-1.9,1.9v5.7h-45.8v-5.7c0-1.1-0.9-1.9-1.9-1.9
			c-1.1,0-1.9,0.9-1.9,1.9v5.7h-7.6c-4.2,0-7.6,3.4-7.6,7.6v61.1c0,4.2,3.4,7.6,7.6,7.6h68.7c4.2,0,7.6-3.4,7.6-7.6v-61.1
			C-277.5,266.8-280.9,263.4-285.1,263.4z M-281.3,332.1c0,2.1-1.7,3.8-3.8,3.8h-68.7c-2.1,0-3.8-1.7-3.8-3.8v-45.8h76.4V332.1z
			 M-281.3,282.5h-76.4v-11.5c0-2.1,1.7-3.8,3.8-3.8h7.6v5.7c0,1.1,0.9,1.9,1.9,1.9c1.1,0,1.9-0.9,1.9-1.9v-5.7h45.8v5.7
			c0,1.1,0.9,1.9,1.9,1.9s1.9-0.9,1.9-1.9v-5.7h7.6c2.1,0,3.8,1.7,3.8,3.8V282.5z M-332.9,320.7h-7.6v7.6h7.6V320.7z M-321.4,320.7
			h-7.6v7.6h7.6V320.7z M-321.4,307.3h-7.6v7.6h7.6V307.3z M-332.9,294h-7.6v7.6h7.6V294z M-332.9,307.3h-7.6v7.6h7.6V307.3z"/>
	</g>
</g>
</svg>
