<?xml version="1.0" encoding="utf-8"?>
<!-- Generator: Adobe Illustrator 18.1.1, SVG Export Plug-In . SVG Version: 6.00 Build 0)  -->
<svg version="1.1" id="Camada_1" xmlns="http://www.w3.org/2000/svg" xmlns:xlink="http://www.w3.org/1999/xlink" x="0px" y="0px"
	 width="100px" height="100px" viewBox="-370 248.3 100 100" enable-background="new -370 248.3 100 100" xml:space="preserve">
<rect x="-370" y="248.3" fill="none" width="100" height="100"/>
<g>
	<g>
		<path fill="none" stroke="#FFFFFF" stroke-width="4.3696" stroke-linejoin="round" stroke-miterlimit="10" d="M-310.8,337.1h-38.1
			c-0.8,0-1.5-0.8-1.5-1.8v-75.8c0-1,0.7-1.8,1.5-1.8h56.8c0.8,0,1.5,0.8,1.5,1.8v41.1"/>
	</g>
	<rect x="-340" y="316.6" fill="#FFFFFF" width="13.1" height="6.5"/>
	<rect x="-340" y="286.6" fill="#FFFFFF" width="38.9" height="6.5"/>
	<rect x="-340" y="301.6" fill="#FFFFFF" width="23.1" height="6.5"/>
	<rect x="-340" y="271.6" fill="#FFFFFF" width="39" height="6.5"/>
	<path fill="none" stroke="#FFFFFF" stroke-width="2.9131" stroke-linejoin="round" stroke-miterlimit="10" d="M-288.1,317.5
		c0-5.7-4.6-10.3-10.3-10.3s-10.3,4.6-10.3,10.3c0,5.2,5.7,8.9,6.3,14c0.3,2.2,1.8,2.9,4,2.9c2.2,0,3.8-0.7,4-2.9
		C-293.9,326.3-288.1,322.8-288.1,317.5z"/>
	<polyline fill="none" stroke="#FFFFFF" stroke-width="2.9131" stroke-linejoin="round" stroke-miterlimit="10" points="
		-298.5,333.9 -298.5,324.5 -296.5,322.6 -299.7,319.4 -297.1,316.8 -299.6,314.3 	"/>
	<path fill="#FFFFFF" d="M-294.4,337.5c0,0-1.6,0.8-4.1,0.8c-2.5,0-4.1-0.8-4.1-0.8c0,2.2,1.8,4.1,4.1,4.1
		C-296.2,341.6-294.4,339.8-294.4,337.5z"/>
</g>
</svg>
