<?xml version="1.0" encoding="utf-8"?>
<!-- Generator: Adobe Illustrator 18.1.1, SVG Export Plug-In . SVG Version: 6.00 Build 0)  -->
<svg version="1.1" id="Camada_1" xmlns="http://www.w3.org/2000/svg" xmlns:xlink="http://www.w3.org/1999/xlink" x="0px" y="0px"
	 width="100px" height="100px" viewBox="-909 911 100 100" enable-background="new -909 911 100 100" xml:space="preserve">
<g>
	<path fill="#FFFFFF" d="M-890.1,976.5c4.4,0,7.9,3.6,7.9,7.9c0,4.4-3.6,7.9-7.9,7.9c-4.4,0-7.9-3.6-7.9-7.9
		C-897.9,980-894.5,976.5-890.1,976.5z M-890.1,987.6c1.8,0,3.3-1.5,3.3-3.3c0-1.8-1.5-3.3-3.3-3.3c-1.8,0-3.3,1.5-3.3,3.3
		C-893.5,986.1-892,987.6-890.1,987.6z"/>
	<path fill="#FFFFFF" d="M-835.1,976.5c4.4,0,7.9,3.6,7.9,7.9c0,4.4-3.6,7.9-7.9,7.9c-4.4,0-7.9-3.6-7.9-7.9
		C-843,980-839.5,976.5-835.1,976.5z M-835.1,987.6c1.8,0,3.3-1.5,3.3-3.3c0-1.8-1.5-3.3-3.3-3.3c-1.8,0-3.3,1.5-3.3,3.3
		C-838.4,986.1-836.9,987.6-835.1,987.6z"/>
	<path fill="#FFFFFF" d="M-820.6,944.4h-48.6c-1.7,0-4,1-5.2,2.3l-19.6,17.7l-6.8,1.6c-1.6,0.3-3.2,2.1-3.4,3.8l-1.6,14.6h6.4
		c0-5.2,4.1-9.3,9.3-9.3c5.2,0,9.3,4.1,9.3,9.3h36.2c0-5.2,4.1-9.3,9.3-9.3c5.1,0,9.1,4,9.3,9l8.3-2.3v-34.1
		C-817.5,945.8-818.9,944.4-820.6,944.4z M-869,964.6h-19.9l11.6-10.3h8.3L-869,964.6L-869,964.6z"/>
	<g>
		<path fill="#FFFFFF" d="M-815.1,928.5h-48.6c-1.7,0-4,1-5.2,2.3l-19.6,17.7l-6.8,1.6c-1.7,0.3-3.2,2.1-3.4,3.8l-1.1,10l5.9-1.5
			l14.8-13.7h-4l11.6-10.3h8.3v4.6h43.3c2.6,0,4.1,1.3,4.1,4.1v19.8l3.9-1.1v-34.1C-812,929.9-813.4,928.5-815.1,928.5z"/>
	</g>
</g>
<rect x="-909" y="911" fill="none" width="100" height="100"/>
</svg>
