<?xml version="1.0" encoding="utf-8"?>
<!-- Generator: Adobe Illustrator 18.1.1, SVG Export Plug-In . SVG Version: 6.00 Build 0)  -->
<svg version="1.1" id="Camada_1" xmlns="http://www.w3.org/2000/svg" xmlns:xlink="http://www.w3.org/1999/xlink" x="0px" y="0px"
	 width="100px" height="100px" viewBox="-370 248.3 100 100" enable-background="new -370 248.3 100 100" xml:space="preserve">
<rect x="-370" y="248.3" fill="none" width="100" height="100"/>
<g>
	<g id="Shopping_Basket">
		<g>
			<path fill="#FFFFFF" d="M-279.7,284.3h-5.5l-33.5-23.7l0,0c-0.4-0.4-0.9-0.6-1.5-0.6c-0.6,0-1.1,0.3-1.5,0.6l0,0l-33.5,23.7h-5.5
				c-2.2,0-4.1,1.8-4.1,4.1v4.1c0,2.2,1.8,4.1,4.1,4.1h0.8l7.3,34.9l0,0c0.2,0.9,1,1.5,1.9,1.5h60.8c0.9,0,1.7-0.7,1.9-1.5l0,0
				l7.3-34.9h0.8c2.2,0,4.1-1.8,4.1-4.1v-4.1C-275.7,286.2-277.5,284.3-279.7,284.3z M-320.2,264.5l28.1,19.8h-56.2L-320.2,264.5z
				 M-355.8,296.5h13.9l1.3,8.1h-13.5L-355.8,296.5z M-353.2,308.6h13.3l1.3,8.1h-12.9L-353.2,308.6z M-349,328.9l-1.7-8.1h12.6
				l1.3,8.1H-349z M-322.2,328.9h-10.4l-1.3-8.1h11.7V328.9z M-322.2,316.7h-12.4l-1.3-8.1h13.6V316.7z M-322.2,304.6h-14.3
				l-1.3-8.1h15.6V304.6z M-307.7,328.9h-10.4v-8.1h11.7L-307.7,328.9z M-305.8,316.7h-12.4v-8.1h13.6L-305.8,316.7z M-318.2,304.6
				v-8.1h15.6l-1.3,8.1H-318.2z M-291.5,328.9h-12.2l1.3-8.1h12.6L-291.5,328.9z M-288.9,316.7h-12.9l1.3-8.1h13.3L-288.9,316.7z
				 M-286.4,304.6h-13.5l1.3-8.1h13.9L-286.4,304.6z M-279.7,292.4h-81v-4.1h81V292.4z"/>
		</g>
	</g>
</g>
</svg>
