<?xml version="1.0" encoding="utf-8"?>
<!-- Generator: Adobe Illustrator 18.1.1, SVG Export Plug-In . SVG Version: 6.00 Build 0)  -->
<svg version="1.1" id="Layer_1" xmlns="http://www.w3.org/2000/svg" xmlns:xlink="http://www.w3.org/1999/xlink" x="0px" y="0px"
	 width="750px" height="600px" viewBox="-734 661 750 600" enable-background="new -734 661 750 600" xml:space="preserve">
<g>
	<rect x="-734" y="661" fill="none" width="750" height="600"/>
	<g>
		<path fill="#0F4BA4" d="M-705,829c0-32,25-57.9,55.8-57.9H-75c30.8,0,55.8,25.9,55.8,57.9v265.2c0,32-25,57.9-55.7,57.9h-574.3
			c-30.8,0-55.7-25.9-55.7-57.9V829H-705z"/>
		<g>
			<path fill="#FFFFFF" d="M-156.6,848.1c8.5,0.1,4.8-0.1,11,0.1c7.2,0.3,14.6,1.1,22.3,2.6c7.7,1.4,15.3,3.5,22.7,6.2
				c7.4,2.8,14.5,6.3,21.3,10.6c6.7,4.3,12.8,9.6,18,15.7l-44.1,28.4c-5.2-6-11.8-10.6-19.7-14c-7.9-3.4-17-5.2-27.5-5.7
				c-10.5-0.4-20.3,0.9-29.4,4c-9.1,3.1-17,7.7-23.8,13.7c-6.8,6-12.2,13.2-16.2,21.6s-6.2,17.7-6.7,27.7
				c-0.4,10.2,1.1,19.6,4.5,28.3c3.3,8.7,8.2,16.2,14.3,22.7c6.2,6.5,13.5,11.6,22.1,15.5c8.6,3.8,17.9,5.9,27.9,6.3
				c11.4,0.4,21.6-1.2,30.6-5c9-3.8,16.5-9.2,22.5-16.3l45.3,31.6c-11.2,12.5-25.2,21.4-41.9,27c-16.7,5.5-33.8,7.9-51.1,7.2
				c-19.8-0.8-38-4.1-54.4-10.1c-5-1.8-9.9-4-14.8-6.2c4-3.2,7.6-6.9,11.1-10.6l8.2-9l-10-7l-45.3-31.6l-8-5.6l-6.3,7.4
				c-1,1.1-2,2.3-3.1,3.3l-1.1-2.6c-6.2-14.4-9-30.3-8.4-47.7c0.5-14.6,3.8-28.9,9.8-42.2c3.3,3,1.9,1.6,4.4,4.2l6.1,6.9l7.7-5
				l44.1-28.4l10.4-6.7l-7.9-9.4c-4.1-4.8-8.6-9.2-13.5-12.9c8-4.1,16.5-7,25.2-9.5c12.1-3.3,24.5-5.2,36.9-5.7
				C-161.4,848.2-159,848.2-156.6,848.1z"/>
			<path fill="#FFFFFF" d="M-315.6,846.5c8.5,0.1,4.8-0.1,11,0.1c7.2,0.3,14.6,1.1,22.3,2.6c7.7,1.4,15.3,3.5,22.7,6.2
				c7.4,2.8,14.5,6.3,21.3,10.6c6.7,4.3,12.8,9.6,18,15.7l-44.1,28.4c-5.2-6-11.8-10.6-19.7-14c-7.9-3.4-17-5.2-27.5-5.7
				s-20.3,0.9-29.4,4c-9.1,3.1-17,7.7-23.8,13.7c-6.8,6-12.2,13.2-16.2,21.6c-4,8.4-6.2,17.7-6.7,27.7c-0.4,10.2,1.1,19.6,4.5,28.3
				c3.3,8.7,8.2,16.2,14.3,22.7c6.2,6.5,13.5,11.6,22.1,15.5c8.6,3.8,17.9,5.9,27.9,6.3c11.4,0.4,21.6-1.2,30.6-5
				c9-3.8,16.5-9.2,22.5-16.3l45.3,31.6c-11.2,12.5-25.2,21.4-41.9,27c-16.7,5.5-33.7,7.9-51.1,7.2c-19.8-0.8-38-4.1-54.4-10.1
				c-16.5-6-30.6-14.2-42.3-24.5c-3.4-2.9-6.5-6.2-9.5-9.6v-98h-7.4l0,0h-15.3c1.8-8.4,5-16.4,9-24c7.4-13.8,17.3-25.5,29.9-34.9
				c12.6-9.4,27.2-16.5,44.2-21.1c12.1-3.3,24.5-5.2,36.9-5.7C-320.5,846.6-318,846.6-315.6,846.5z"/>
			<path fill="#FFFFFF" d="M-533.3,848.1c0.9,0,1.8,0,2.7,0c51.5,0,103,0,154.5,0c-12.3,4.4-23.9,10.9-34.5,18.6
				c-9.4,7.2-18.2,15.7-24.9,25.6h-91.6c0,0-22.9-0.3-40,5.8c-9.2,3.3-17,7.2-25.1,14.3c-9.6,7.7-15.2,21.3-15.2,21.3
				c-3.7,8.6-5.5,17.9-5.5,27.9c0,10.2,1.8,19.6,5.5,28.1s9,15.9,16,22.1c7,6.2,15.2,11.1,24.9,14.6c9.7,3.5,20.4,5.2,32.4,5.2
				c12.2,0,22.7-1.2,31.5-3.5c7.2-1.9,14.3-4.2,21.1-7.2v-35.3H-527l0.1-39.6l95.2,0.1v108.5c-16.5,7.4-29.9,13-47.7,16.4
				c-17.9,3.3-36.2,4.9-54.8,4.9c-19.8,0-38.1-2.7-54.8-8c-16.7-5.3-31.1-12.9-43.3-22.8c-12.2-9.9-21.6-21.9-28.4-36.1
				c-6.8-14.1-10.2-29.9-10.2-47.2s3.4-33.1,10.2-47.2c6.8-14.1,16.3-26.2,28.4-36.1c11.3-10.4,25.4-18.4,42.1-23.7
				c2.5-0.9,2.9-1.1,6.1-1.8C-568.7,848.8-549.4,848.1-533.3,848.1z"/>
		</g>
	</g>
</g>
</svg>
