<?xml version="1.0" encoding="utf-8"?>
<!-- Generator: Adobe Illustrator 18.1.1, SVG Export Plug-In . SVG Version: 6.00 Build 0)  -->
<svg version="1.1" id="Layer_1" xmlns="http://www.w3.org/2000/svg" xmlns:xlink="http://www.w3.org/1999/xlink" x="0px" y="0px"
	 width="471.9px" height="435.1px" viewBox="0 0 471.9 435.1" enable-background="new 0 0 471.9 435.1" xml:space="preserve">
<g>
	<g>
		<defs>
			<rect id="SVGID_1_" y="0" width="471.9" height="435.1"/>
		</defs>
		<clipPath id="SVGID_2_">
			<use xlink:href="#SVGID_1_"  overflow="visible"/>
		</clipPath>
		<path clip-path="url(#SVGID_2_)" fill="#263C91" d="M421.4,96c22.3,30.7,37.9,65.3,45,100.1c3.8,18.7,5.1,37.1,3.7,54.6
			c-1.4,18.8-5.9,36.8-13.1,53.4c-7.2,16.3-16.7,30.5-29,43.3c-11.4,11.8-25,22.2-41.5,31.7c-39.2,22.3-94.1,41-146.7,49.9
			c-29,4.9-56.3,6.8-81.3,5.6c-27.5-1.3-51.5-6.3-71.2-15c-29.2-12.8-48.3-33.2-56.6-60.4c-7.2-23.4-6.4-52,2.2-84.9
			c5.8-22.4,13.8-41.5,22.2-60.7c10.7-24.5,22.3-47.6,34.4-68.5c15.1-26.1,31-49.2,47.5-68.5c41.8-49.1,86.9-74.9,134-76.6
			c15-0.8,34.6,3.1,50.1,9.9c24.7,10.8,67.7,44.9,97.9,82.2L421.4,96z"/>
	</g>
	<g>
		<defs>
			<rect id="SVGID_3_" y="0" width="471.9" height="435.1"/>
		</defs>
		<clipPath id="SVGID_4_">
			<use xlink:href="#SVGID_3_"  overflow="visible"/>
		</clipPath>
		<path clip-path="url(#SVGID_4_)" fill="#A2CE9B" d="M138.6,74.6c-17.4,12.3-35,26.2-52.6,41.3c-15.9,13.7-31.4,27.4-46.3,45.2
			c-22,25.9-35,51.3-38.7,75.6c-0.7,4.6-1.1,9.2-1.1,13.7v0.8c0.1,22.7,8.8,44.3,25.9,64.3c0.6-10.4,2.2-21.3,4.8-32.9
			c0,0,0,0,0-0.1c0,0,0-0.1,0-0.1c0.6-2.6,1.2-5.2,1.9-7.9c1.4-5.6,3-11,4.7-16.3c5.1-15.7,11.2-30.1,17.5-44.5
			c10.7-24.5,22.3-47.6,34.4-68.5c0.1-0.2,0.2-0.4,0.4-0.6c15-25.9,30.8-48.7,47.1-67.9c0.5-0.6,1.1-1.2,1.6-1.8
			C138.5,74.8,138.6,74.7,138.6,74.6"/>
	</g>
	<g>
		<defs>
			<rect id="SVGID_5_" y="0" width="471.9" height="435.1"/>
		</defs>
		<clipPath id="SVGID_6_">
			<use xlink:href="#SVGID_5_"  overflow="visible"/>
		</clipPath>
		<path clip-path="url(#SVGID_6_)" fill="#237780" d="M138.4,74.9c-0.5,0.6-1.1,1.2-1.6,1.8C137.3,76.1,137.9,75.5,138.4,74.9
			 M136.8,76.7c-16.3,19.2-32.1,42-47.1,67.9C104.7,118.7,120.5,95.9,136.8,76.7 M37.4,258.2c-1.7,5.2-3.3,10.6-4.7,16.3
			c-0.7,2.7-1.3,5.3-1.9,7.9c0.6-2.6,1.2-5.2,1.9-7.9C34.1,268.8,35.7,263.4,37.4,258.2 M30.7,282.4
			C30.7,282.4,30.7,282.4,30.7,282.4C30.7,282.4,30.7,282.4,30.7,282.4"/>
		<path clip-path="url(#SVGID_6_)" fill="#229CD3" d="M314.6,4.8c-2.6,0-5.2,0.1-7.8,0.2c4.9,1.4,9.6,3.1,14,5.1
			c24.7,10.8,67.7,44.9,97.9,82.2l2.6,3.9c22.3,30.7,37.9,65.3,45,100.1c3.5,17,4.8,33.8,4,49.9c2.8-25.3,1.8-51.7-3-77.9l-0.7-4.6
			c-11.1-46.7-35.2-96-52.8-116.4c-11-12.8-27-24.8-40.9-30.6C355,8.7,335.5,4.8,314.6,4.8"/>
	</g>
	<g>
		<defs>
			<rect id="SVGID_7_" y="0" width="471.9" height="435.1"/>
		</defs>
		<clipPath id="SVGID_8_">
			<use xlink:href="#SVGID_7_"  overflow="visible"/>
		</clipPath>
		<path clip-path="url(#SVGID_8_)" fill="#A2CE9B" d="M450.9,316.3c-1.9,3.5-3.9,6.8-6.1,10.1c0,0,0,0.1-0.1,0.1c0,0,0,0,0,0
			c-4.9,7.4-10.5,14.3-16.8,20.8c0,0-0.1,0.1-0.1,0.1c-11.3,11.7-24.8,22-41.2,31.5c-0.1,0.1-0.3,0.2-0.4,0.2
			c-18.3,10.4-39.9,20-63.1,28.2c15.1-1.8,28.7-5,41.4-9.7c16.7-6.2,31.4-14.9,44.9-26.5c13.7-11.8,25.5-26.1,34.9-42.5
			C446.7,324.7,448.9,320.5,450.9,316.3"/>
		<path clip-path="url(#SVGID_8_)" fill="#237780" d="M444.8,326.4C444.8,326.4,444.8,326.5,444.8,326.4
			C444.8,326.5,444.8,326.4,444.8,326.4 M444.7,326.5c-4.9,7.4-10.5,14.3-16.8,20.8C434.3,340.8,439.9,333.9,444.7,326.5
			 M386.7,378.9c-0.1,0.1-0.3,0.2-0.4,0.2C386.4,379.1,386.6,379,386.7,378.9"/>
		<path clip-path="url(#SVGID_8_)" fill="#216298" d="M306.8,5c-27.1,1.2-56.4,8.8-87.7,22.8C196,38,171.6,51.9,146.7,68.9
			c-2.7,1.8-5.4,3.7-8.1,5.6c-0.6,0.7-1.2,1.4-1.8,2.1c-16.4,19.3-32.4,42.3-47.5,68.5c-12.1,21-23.7,44-34.4,68.5
			c-8.4,19.2-16.5,38.3-22.2,60.7c-3.8,14.5-6.1,28.1-6.8,40.9l0.2,0.2c14,16.3,33.5,31.2,57.7,44.3c22,11.8,47.5,22,75.7,30.1
			c43.1,12.3,90.5,19.2,131.2,19.2c7.8,0,15.4-0.2,22.6-0.8c3.3-0.2,6.6-0.6,9.8-0.9c23.2-8.2,44.9-17.8,63.1-28.2
			c16.6-9.5,30.1-19.9,41.5-31.7c9.2-9.5,16.8-19.8,23.1-31.2c5.7-11.9,10.3-24.8,13.7-38.4c2.6-10.3,4.5-21,5.7-31.8
			c0.8-16.1-0.5-32.9-4-49.9c-7.1-34.7-22.6-69.3-45-100.1l-2.6-3.9c-30.2-37.3-73.3-71.4-97.9-82.2C316.4,8.1,311.7,6.4,306.8,5"/>
	</g>
	<polygon fill="#FFFFFF" points="92.9,138.2 150.4,138.2 169.8,230.1 170.2,230.1 192.3,138.2 239.8,138.2 261.7,230.1 262.1,230.1 
		281.5,138.2 339.1,138.2 295,288.7 236.6,288.7 216.2,205.2 215.7,205.2 195.1,288.7 136.7,288.7 	"/>
	<polygon fill="#FFFFFF" points="312.2,138 371.7,138 371.7,248 463.8,248 463.8,288.5 312.2,288.5 	"/>
	<g>
		<defs>
			<rect id="SVGID_9_" y="0" width="471.9" height="435.1"/>
		</defs>
		<clipPath id="SVGID_10_">
			<use xlink:href="#SVGID_9_"  overflow="visible"/>
		</clipPath>
		<path clip-path="url(#SVGID_10_)" fill="#FFFFFF" d="M159.9,305.9c-8,0-11.1,3.9-11.1,8.3c0,4.6,3,8.5,11.1,8.5
			c8.3,0,11.2-3.9,11.2-8.5C171.1,309.8,168.1,305.9,159.9,305.9 M171.1,329.8c-3.9,3.4-10,4.6-16.9,4.6c-16.7,0-25.8-7.2-25.8-20.5
			c0-13.4,11.3-20.5,25.8-20.5c7.8,0,13.6,2.2,17.5,6v-4.8h18.8V334c0,13.6-10.2,18.9-29.7,18.9c-21.2,0-29-4.3-30.8-14.9h21.5
			c0.3,1.4,1,2.4,2.4,3.1c1.4,0.7,3.5,1.1,6.5,1.1c7.9,0,10.7-2.9,10.7-8.7V329.8z"/>
		<path clip-path="url(#SVGID_10_)" fill="#FFFFFF" d="M199.9,294.4h18.8v8.2h0.2c5.1-6.6,11.4-9.3,18.1-9.3c2.1,0,4.3,0.2,6.4,0.5
			v17.4c-3.4-0.9-6.3-1.6-9.7-1.6c-6.9,0-14.3,2.3-14.3,11.4v16h-19.5V294.4z"/>
		<path clip-path="url(#SVGID_10_)" fill="#FFFFFF" d="M278.1,326.1c7.9,0,11.1-3.6,11.1-10.4c0-6.7-3.3-10.4-11.1-10.4
			c-7.8,0-11.1,3.7-11.1,10.4C267,322.5,270.3,326.1,278.1,326.1 M278.1,292.7c22,0,31.5,7.3,31.5,23c0,15.7-9.6,23-31.5,23
			c-22,0-31.5-7.3-31.5-23C246.6,300,256.1,292.7,278.1,292.7"/>
		<path clip-path="url(#SVGID_10_)" fill="#FFFFFF" d="M372,337h-18.8v-4.7H353c-2,2.7-8.2,6.5-17.6,6.5c-10.7,0-18.8-4.8-18.8-16.7
			v-27.6h19.5V317c0,5.4,2.9,7.7,7.5,7.7c6.1,0,9-3.8,9-10.2v-20.1H372V337z"/>
		<path clip-path="url(#SVGID_10_)" fill="#FFFFFF" d="M411.6,325.6c7,0,10.6-4.2,10.6-9.7c0-5.6-3.1-9.7-10.7-9.7
			c-7.5,0-10.7,3.6-10.7,9.7C400.8,322,404,325.6,411.6,325.6 M381.4,294.4h18.8v5.1h0.2c3.5-4,8.9-6.2,17.5-6.2
			c12.6,0,24.2,6.9,24.2,22.7c0,15.8-11.6,22.7-24.2,22.7c-7.9,0-13.5-1.9-16.9-6h-0.2v19.5h-19.5V294.4z"/>
		<path clip-path="url(#SVGID_10_)" fill="#216298" d="M326.8,205.7c-2.3,1.7-6.3,3.1-9.9,3.1c-7.4,0-11.1-4.2-11.1-8.8
			c0-2.8,2.2-6.4,6.1-7.8L326.8,205.7z M362.6,218l-15.2-13.5c4.2-3.9,6.5-6.8,9.5-11.6l-8.9-6.2c-2.6,3.6-6.1,7.9-9.1,10.1
			l-10.9-9.9c6.9-1.9,12.4-5.5,12.4-12.5c0-8.3-7.9-13.1-21.2-13.1c-11.6,0-21.1,4.3-21.1,13.8c0,4.7,3.2,8,5.6,10
			c-9.1,2-16.1,6.8-16.1,16.7c0,9.5,7.2,18,24.5,18c10.6,0,17.6-2.9,22.8-6.4l5,4.6H362.6z M314.9,174.4c0-2.8,2.5-4,5.8-4
			c3.2,0,5.2,1.7,5.2,4.2c0,2.3-2.1,4.4-6.3,6C317.4,178.8,314.9,176.3,314.9,174.4"/>
	</g>
</g>
</svg>
