<?xml version="1.0" encoding="utf-8"?>
<!-- Generator: Adobe Illustrator 18.1.1, SVG Export Plug-In . SVG Version: 6.00 Build 0)  -->
<svg version="1.1" id="Layer_1" xmlns="http://www.w3.org/2000/svg" xmlns:xlink="http://www.w3.org/1999/xlink" x="0px" y="0px"
	 width="320px" height="320px" viewBox="-1926 1515.9 320 320" enable-background="new -1926 1515.9 320 320" xml:space="preserve">
<g>
	<rect x="-1926" y="1515.9" fill="none" width="320" height="320"/>
	<g>
		<g>
			<g>
				<g>
					<defs>
						<rect id="SVGID_1_" x="-1915.9" y="1536.8" width="300" height="276.3"/>
					</defs>
					<clipPath id="SVGID_2_">
						<use xlink:href="#SVGID_1_"  overflow="visible"/>
					</clipPath>
					<path clip-path="url(#SVGID_2_)" fill="#263C91" d="M-1647.5,1597.9c14.3,19.7,24.2,41.7,28.7,63.7c2.4,12,3.2,23.5,2.4,34.9
						c-0.9,12-3.6,23.5-8.3,34c-4.5,10.5-10.7,19.5-18.4,27.6c-7.3,7.5-15.8,14.1-26.5,20.1c-25,14.1-59.9,26.1-93.4,31.9
						c-18.4,3.2-35.9,4.3-51.7,3.6c-17.5-0.9-32.7-4.1-45.3-9.6c-18.6-8.1-30.8-21.2-36.1-38.5c-4.5-15-4.1-33.1,1.5-54.1
						c3.6-14.3,8.8-26.5,14.1-38.7c6.8-15.6,14.3-30.4,22-43.6c9.6-16.7,19.7-31.2,30.1-43.6c26.5-31.2,55.2-47.7,85.1-48.8
						c9.6-0.4,22,2.1,31.9,6.4c15.6,6.8,43.2,28.7,62.4,52.4L-1647.5,1597.9z"/>
				</g>
			</g>
			<g>
				<g>
					<defs>
						<rect id="SVGID_3_" x="-1915.9" y="1536.8" width="300" height="276.3"/>
					</defs>
					<clipPath id="SVGID_4_">
						<use xlink:href="#SVGID_3_"  overflow="visible"/>
					</clipPath>
					<path clip-path="url(#SVGID_4_)" fill="#A6D9F5" d="M-1715.5,1539.8c-1.7,0-3.2,0-4.9,0.2c3.2,0.9,6.2,1.9,9,3.2
						c15.6,6.8,43.2,28.7,62.4,52.4l1.7,2.4c14.3,19.7,24.2,41.7,28.7,63.7c2.1,10.9,3,21.6,2.6,31.9c1.7-16,1.1-32.9-1.9-49.6
						l-0.4-3c-7.1-29.7-22.5-61.2-33.6-74.2c-7.1-8.1-17.1-15.8-26.1-19.5C-1689.9,1542.3-1702.3,1539.8-1715.5,1539.8
						 M-1827.6,1584.2c-11.1,7.9-22.2,16.7-33.6,26.3c-10,8.8-20.1,17.5-29.5,28.7c-13.9,16.5-22.2,32.7-24.6,48.1
						c-2.8,18,2.6,34.9,15.8,50.2c0.4-8.1,1.9-16.9,4.3-26.1c3.6-14.3,8.8-26.5,14.1-38.7c6.8-15.6,14.3-30.4,22-43.6
						c9.6-16.7,19.7-31.2,30.1-43.6C-1828.4,1585.1-1828,1584.7-1827.6,1584.2 M-1628.7,1738.2c-4.1,7.3-8.8,13.7-14.8,19.9
						c-7.3,7.5-15.8,14.1-26.5,20.1c-11.5,6.6-25.4,12.8-40.2,18c9.6-1.1,18.2-3.2,26.3-6.2c10.7-4.1,20.1-9.4,28.7-16.9
						c8.8-7.5,16.3-16.7,22.2-26.9C-1631.5,1743.5-1630,1740.8-1628.7,1738.2"/>
				</g>
			</g>
		</g>
		<g>
			<g>
				<g>
					<defs>
						<rect id="SVGID_5_" x="-1915.9" y="1536.8" width="300" height="276.3"/>
					</defs>
					<clipPath id="SVGID_6_">
						<use xlink:href="#SVGID_5_"  overflow="visible"/>
					</clipPath>
					<path clip-path="url(#SVGID_6_)" fill="#2A7ABC" d="M-1720.4,1540c-17.3,0.9-35.9,5.6-55.8,14.5c-14.8,6.6-30.1,15.4-46.2,26.3
						c-1.7,1.1-3.4,2.4-5.1,3.6c-0.4,0.4-0.9,0.9-1.1,1.3c-10.5,12.2-20.5,26.9-30.1,43.6c-7.7,13.3-15.2,28-22,43.6
						c-5.3,12.2-10.5,24.4-14.1,38.7c-2.4,9.2-3.8,18-4.3,26.1l0,0c9,10.5,21.4,19.9,36.8,28.2c13.9,7.5,30.1,13.9,48.3,19
						c27.4,7.9,57.5,12.2,83.6,12.2c4.9,0,9.8-0.2,14.3-0.4c2.1-0.2,4.3-0.4,6.2-0.6c14.8-5.1,28.7-11.3,40.2-18
						c10.5-6,19.2-12.6,26.5-20.1c5.8-6,10.7-12.6,14.8-19.9c3.6-7.7,6.6-15.8,8.8-24.4c1.7-6.6,2.8-13.3,3.6-20.3
						c0.4-10.3-0.4-21-2.6-31.9c-4.5-22-14.3-44-28.7-63.7l-1.7-2.4c-19.2-23.7-46.6-45.5-62.4-52.4
						C-1714.5,1541.9-1717.5,1540.8-1720.4,1540"/>
				</g>
			</g>
		</g>
		<polygon fill="#FFFFFF" points="-1856.9,1624.7 -1820.1,1624.7 -1807.7,1683.2 -1807.5,1683.2 -1793.4,1624.7 -1763.2,1624.7 
			-1749.3,1683.2 -1748.9,1683.2 -1736.7,1624.7 -1699.9,1624.7 -1728.1,1720.7 -1765.1,1720.7 -1778.2,1667.4 -1778.6,1667.4 
			-1791.7,1720.7 -1828.9,1720.7 		"/>
		<polygon fill="#FFFFFF" points="-1717,1624.7 -1679.2,1624.7 -1679.2,1694.8 -1620.6,1694.8 -1620.6,1720.4 -1717,1720.4 		"/>
		<g>
			<g>
				<g>
					<defs>
						<rect id="SVGID_7_" x="-1915.9" y="1536.8" width="300" height="276.3"/>
					</defs>
					<clipPath id="SVGID_8_">
						<use xlink:href="#SVGID_7_"  overflow="visible"/>
					</clipPath>
					<path clip-path="url(#SVGID_8_)" fill="#2A7ABC" d="M-1715.3,1647.7c0-1.7,1.7-2.6,3.6-2.6c2.1,0,3.4,1.1,3.4,2.6
						s-1.3,2.8-4.1,3.8C-1713.8,1650.5-1715.3,1649-1715.3,1647.7 M-1685,1675.5l-9.6-8.6c2.6-2.4,4.1-4.3,6-7.3l-5.6-4.1
						c-1.7,2.4-3.8,4.9-5.8,6.4l-6.8-6.4c4.5-1.3,7.9-3.4,7.9-7.9c0-5.3-4.9-8.3-13.5-8.3c-7.3,0-13.5,2.8-13.5,8.8
						c0,3,2.1,5.1,3.6,6.4c-5.8,1.3-10.3,4.3-10.3,10.7c0,6,4.7,11.5,15.6,11.5c6.8,0,11.3-1.9,14.5-4.1l3.2,3h14.1v-0.1H-1685z
						 M-1707.8,1667.6c-1.5,1.1-4.1,1.9-6.2,1.9c-4.7,0-7.1-2.8-7.1-5.6c0-1.7,1.5-4.1,3.8-4.9L-1707.8,1667.6z"/>
				</g>
			</g>
		</g>
		<g>
			<path fill="#FFFFFF" d="M-1827.6,1733.9h11.1v3.8h0.2c2.4-3,6.4-4.7,11.1-4.7c10.3,0,17.1,5.8,17.1,15.8
				c0,8.6-6.2,15.4-16.9,15.4c-5.1,0-9-1.7-10.9-3.8h-0.2v13.3h-11.3v-39.8H-1827.6z M-1808.1,1755.9c5.1,0,8.1-2.6,8.1-7.5
				s-2.8-7.5-8.1-7.5s-8.1,3-8.1,7.5C-1816.2,1753.2-1813.5,1755.9-1808.1,1755.9z"/>
			<path fill="#FFFFFF" d="M-1783.5,1733.9h11.3v5.8h0.2c2.4-3.8,6.8-6.6,12-6.6c1.3,0,2.8,0.2,3.8,0.4v10.7
				c-1.5-0.6-4.1-1.1-6.2-1.1c-6.4,0-9.4,3.4-9.4,8.6v11.3h-11.3v-29.1H-1783.5z"/>
			<path fill="#FFFFFF" d="M-1752.5,1723.7h11.3v6.8h-11.3V1723.7z M-1752.5,1733.9h11.3v29.3h-11.3V1733.9z"/>
			<path fill="#FFFFFF" d="M-1735,1733.9h11.1v4.3h0.2c2.4-2.8,6.4-4.9,12.2-4.9c7.3,0,12.4,3.4,12.4,10.7v19.2h-11.3v-15.8
				c0-3.6-2.1-5.6-6-5.6c-4.1,0-7.1,2.1-7.1,7.1v14.3h-11.3v-29.3H-1735z"/>
		</g>
		<g>
			<path fill="#FFFFFF" d="M-1696.1,1733.9h6v-9.2h11.3v9.2h7.5v7.5h-7.3v11.8c0,2.6,0.6,3,3.6,3c1.5,0,2.6,0,4.1-0.2v7.1
				c-2.4,0.4-5.3,0.6-8.8,0.6c-7.5,0-10.5-1.9-10.5-8.1v-14.1h-6C-1696.1,1741.4-1696.1,1733.9-1696.1,1733.9z"/>
		</g>
	</g>
</g>
</svg>
